<svg width="800" height="800" viewBox="0 0 800 800" fill="none" xmlns="http://www.w3.org/2000/svg">
<g clip-path="url(#clip0_2017_2)">
<path d="M224.53 248.117C228.443 235.695 223.991 224.997 222.232 214.082C215.77 173.442 210.851 132.585 217.385 91.5137C218.89 81.3798 222.327 71.6293 227.51 62.7922C237.849 45.703 253.574 41.9333 269.479 53.5295C281.153 61.9246 291.377 72.1721 299.744 83.8666C313.279 103.182 324.48 124.077 336.508 144.397C342.216 153.983 347.601 163.784 352.628 172.616C362.608 173.011 363.829 165.938 366.988 161.414C370.536 156.389 373.75 151.136 376.61 145.689C393.694 112.548 420.57 85.4719 453.583 68.1416C458.143 65.7362 462.666 63.223 467.37 61.2484C472.48 58.6784 478.315 57.9287 483.909 59.1232C489.503 60.3178 494.522 63.3852 498.137 67.8185C506.729 76.7794 512.626 87.9764 515.155 100.13C521.115 129.318 527.649 158.363 527.218 188.449C527.003 201.696 528.008 214.944 528.546 230.202C535.727 229.736 541.471 229.843 547.108 228.874C574.393 223.991 601.463 217.026 628.964 214.298C656.464 211.569 684.36 212.682 712.112 212.718C717.218 213.135 722.146 214.786 726.473 217.529C740.08 225.14 744.424 236.377 739.972 251.277C734.3 270.412 722.955 286.281 710.712 301.539C692.526 325.192 671.887 346.854 649.14 366.162C645.246 369.825 641.566 373.709 638.119 377.795C656.895 385.944 673.805 392.838 690.356 400.521C705.291 407.45 719.903 414.881 734.443 422.672C761.764 437.033 780.362 460.297 796.625 485.572C802.405 494.547 800.646 502.446 791.168 509.483C782.228 516.124 772.858 523.484 762.447 526.823C741.041 534.113 718.722 538.379 696.136 539.496C658.26 540.681 620.419 543.553 582.65 545.743C577.265 553.211 582.184 559.853 584.158 566.1C599.381 615.177 600.063 665.332 595.503 715.738C592.918 744.639 566.387 760.257 539.568 749.055C521.559 741.257 505.588 729.414 492.896 714.446C468.76 686.371 446.5 656.736 426.262 625.733C422.887 620.706 419.082 615.967 415.097 610.618C405.367 613.67 403.105 622.106 399.372 628.784C376.861 668.922 345.16 700.911 310.622 730.494C305.003 735.803 298.234 739.744 290.843 742.011C283.451 744.277 275.637 744.808 268.007 743.562C253.646 741.193 242.876 733.546 238.639 719.652C235.341 709.918 233.903 699.651 234.403 689.386C237.778 652.623 239.286 615.501 250.343 579.814C251.507 574.268 252.227 568.637 252.497 562.976C240.901 560.786 231.459 564.628 222.232 567.895C167.231 587.497 110.47 594.39 52.4166 592.093C45.2054 592.039 38.007 591.475 30.8755 590.405C16.1917 587.677 7.18031 577.265 7.18031 562.653C6.53181 551.193 9.6733 539.838 16.1199 530.341C22.6133 521.074 29.8152 512.324 37.6609 504.169C74.6039 468.483 111.87 433.119 160.302 407.234C155.327 403.357 150.098 399.818 144.648 396.643C104.295 377.543 69.8649 349.612 34.9683 322.614C15.0069 307.14 0.251263 287.609 -4.93419e-05 260.288C-0.435305 255.697 0.563579 251.085 2.85901 247.085C5.15444 243.086 8.63348 239.897 12.8169 237.957C29.8089 228.139 49.3032 223.508 68.8955 224.638C117.183 228.084 165.148 233.398 211.821 246.502C216.018 247.315 220.263 247.855 224.53 248.117ZM549.728 403.034C552.17 371.799 539.927 346.883 519.14 324.983C511.96 317.587 506.395 308.791 499.035 301.755C464.964 269.156 425.4 248.548 376.969 255.549C317.91 264.201 276.767 298.559 249.482 350.94C236.772 375.353 237.706 400.664 244.671 425.652C251.453 450.588 265.069 473.133 283.983 490.742C306.35 512.007 334.549 526.119 364.978 531.275C423.534 541.722 474.478 527.362 519.858 490.49C532.293 481.073 540.563 467.174 542.907 451.752C545.205 435.668 547.479 419.465 549.728 403.141V403.034ZM251.743 510.739C222.376 490.562 214.334 458.394 197.46 431.719C165.148 445.685 138.796 464.857 113.701 486.075C93.3087 503.343 73.5628 521.258 58.6276 543.517C56.5695 547.757 55.0729 552.246 54.1758 556.873C123 563.479 205.286 544.918 251.636 510.954L251.743 510.739ZM231.208 294.072C227.438 291.2 225.32 288.65 222.591 287.861C171.427 272.684 118.563 263.975 65.2335 261.94C59.2557 261.495 53.324 263.272 48.5751 266.93C42.4718 273.069 47.1749 280.788 51.3395 286.389C56.2217 292.904 61.9301 298.757 68.3211 303.801C81.0267 314.22 94.3073 323.916 108.1 332.846C129.893 346.273 152.367 358.551 174.842 370.758C179.76 373.451 185.971 373.774 193.295 375.605C197.46 343.257 218.75 320.89 231.208 294.072ZM572.059 496.378C611.838 509.734 701.701 507.149 742.27 492.07C740.798 483.49 735.089 477.709 728.807 472.396C701.952 449.167 669.605 435.597 637.616 421.523C625.697 416.281 613.705 409.64 599.596 412.189C596.652 426.908 595.108 441.341 590.656 454.804C585.917 469.129 578.414 482.484 572.059 496.378ZM553.498 707.984C563.515 654.131 547 574.572 520.72 545.456C508.693 549.549 495.768 552.995 483.633 558.309C471.498 563.622 457.245 562.33 447.013 574.142C476.381 616.829 502.625 660.988 538.527 698.075C541.866 701.521 546.677 703.568 553.498 707.984ZM586.743 354.135C603.366 349.971 614.208 337.333 625.804 325.952C637.401 314.572 648.961 302.868 659.803 290.661C670.646 278.454 683.355 268.617 687.304 252.785C677.862 244.312 668.994 245.317 659.588 247.076C631.405 252.39 602.935 256.518 574.931 262.55C559.206 265.925 543.23 270.161 529.264 281.219L586.743 354.135ZM480.115 246.071C490.885 205.861 485.787 143.32 469.344 106.054C454.301 108.675 444.213 118.907 435.202 129.821C413.84 155.993 400.161 186.546 385.334 217.924C403.285 221.514 419.261 223.812 434.699 228.407C450.137 233.003 464.892 240.075 480.115 246.071ZM386.447 572.347C355.966 567.213 330.512 556.586 301.36 552.744C295.795 580.353 290.374 606.274 285.383 632.303C283.276 642.294 281.861 652.418 281.147 662.604C280.501 674.308 283.66 684.683 295.508 690.104C335.179 659.014 366.737 622.645 386.447 572.347ZM278.921 251.708C288.974 246.717 296.872 242.624 305.165 238.711C313.459 234.798 321.178 231.208 328.968 227.546C319.347 200.512 281.937 127.81 267.935 109.07C265.996 106.485 262.011 105.479 258.206 103.218C251.313 150.357 259.75 212.539 278.921 251.708Z" fill="black"/>
<path d="M549.728 403.141C547.478 419.321 545.204 435.525 542.906 451.752C540.562 467.174 532.292 481.073 519.857 490.491C474.477 527.362 423.533 541.722 364.977 531.275C334.549 526.119 306.349 512.007 283.982 490.742C265.069 473.133 251.452 450.588 244.67 425.652C237.705 400.521 236.772 375.389 249.481 350.94C276.766 298.559 317.91 264.201 376.968 255.657C425.328 248.476 464.892 269.264 499.034 301.862C506.394 309.043 512.067 317.695 519.139 325.091C539.926 346.991 552.169 371.907 549.728 403.141Z" fill="#D9FF00"/>
<path d="M251.636 510.955C205.286 544.918 123 563.479 54.1758 556.945C55.0874 552.329 56.5959 547.851 58.6635 543.625C73.5987 521.258 93.3447 503.343 113.737 486.182C138.832 464.857 165.148 445.577 197.46 431.719C214.334 458.394 222.376 490.562 251.636 510.955Z" fill="#D9FF00"/>
<path d="M231.207 294.072C218.75 320.89 197.46 343.257 193.295 375.605C186.115 373.774 179.76 373.451 174.842 370.758C152.367 358.551 129.893 346.273 108.1 332.846C94.3317 323.914 81.0751 314.217 68.3927 303.801C62.0017 298.757 56.2934 292.904 51.4112 286.389C47.2466 280.788 42.5434 273.069 48.6467 266.93C53.3957 263.272 59.3273 261.495 65.3052 261.94C118.61 263.981 171.45 272.69 222.591 287.861C225.32 288.651 227.438 291.2 231.207 294.072Z" fill="#D9FF00"/>
<path d="M572.059 496.378C578.413 482.484 585.917 469.129 590.656 454.804C595.108 441.341 596.651 426.908 599.595 412.189C613.705 409.64 625.696 416.281 637.615 421.523C669.604 435.597 701.951 449.167 728.806 472.396C734.945 477.709 740.797 483.49 742.269 492.07C701.7 507.328 611.838 509.734 572.059 496.378Z" fill="#D9FF00"/>
<path d="M553.498 707.984C546.677 703.568 541.866 701.521 538.527 698.075C502.626 660.988 476.381 616.829 447.014 574.142C457.246 562.33 471.858 563.371 483.634 558.309C495.409 553.247 508.765 549.549 520.72 545.456C547 574.573 563.659 653.987 553.498 707.984Z" fill="#D9FF00"/>
<path d="M586.744 354.135L529.301 281.219C543.267 270.161 559.243 265.925 574.968 262.55C602.971 256.518 631.441 252.39 659.624 247.076C669.031 245.317 677.898 244.312 687.341 252.785C683.391 268.617 670.287 278.885 659.84 290.661C649.392 302.437 637.509 314.5 625.841 325.952C614.173 337.405 603.366 349.971 586.744 354.135Z" fill="#D9FF00"/>
<path d="M480.115 246.071C464.893 240.075 450.209 233.11 434.771 228.515C419.333 223.92 403.178 221.694 385.406 218.032C400.234 186.653 413.912 156.101 435.274 129.929C444.178 119.158 454.374 108.782 469.416 106.162C485.788 143.32 490.778 205.861 480.115 246.071Z" fill="#D9FF00"/>
<path d="M386.447 572.347C366.737 622.609 335.179 659.014 295.328 690.104C283.66 684.683 280.501 674.308 280.968 662.604C281.739 652.402 283.215 642.265 285.384 632.267C290.374 606.238 295.795 580.317 301.36 552.708C330.512 556.586 355.967 567.213 386.447 572.347Z" fill="#D9FF00"/>
<path d="M278.922 251.708C259.75 212.539 251.313 150.357 258.171 103.182C261.976 105.408 265.961 106.449 267.9 109.034C281.938 127.703 319.347 200.404 328.933 227.51C321.142 231.1 313.1 234.69 305.13 238.675C297.16 242.66 288.974 246.609 278.922 251.708Z" fill="#D9FF00"/>
</g>
<defs>
<clipPath id="clip0_2017_2">
<rect width="800" height="800" fill="none"/>
</clipPath>
</defs>
</svg>
